# xmcd CD database file
# Copyright (C) 1997 Ti Kan
# 
# Track frame offsets:
#     150
#     10777
#     24275
#     39242
#     56105
#     73045
#     88695
#     102215
#     118665
#     131857
#     148310
# 
# Disc length: 2175 seconds
# 
# Revision: 1
# Processed by: cddbd v1.4b41PL1 Copyright (c) Steve Scherf et al.
# Submitted via: DiscPlay 4.0.4
# 
DISCID=97087d0b
DTITLE=The Cactus Pricks - As Seen On TV
DYEAR=1900
DGENRE=
TTITLE0=Don't be no Rock'n'Roll Star
TTITLE1=Don't Come Cryin'
TTITLE2=As Seen On TV
TTITLE3=Would You Still Dance
TTITLE4=Good Girl
TTITLE5=Get All That You Can
TTITLE6=Compassionate Man
TTITLE7=I Don't Know Gauguin
TTITLE8=Our Eyes Are On The Light
TTITLE9=14 Feet
TTITLE10=Recall On Our Love
EXTD=
EXTT0=
EXTT1=
EXTT2=
EXTT3=
EXTT4=
EXTT5=
EXTT6=
EXTT7=
EXTT8=
EXTT9=
EXTT10=
PLAYORDER=
